<svg width="35" height="40" viewBox="0 0 35 40" fill="none" xmlns="http://www.w3.org/2000/svg">
<g clip-path="url(#clip0_4956_848)">
<path fill-rule="evenodd" clip-rule="evenodd" d="M1.715 7.57824C2.4697 7.97847 3.03742 8.35951 4.20942 8.35951H33.2851V38.2814H3.89763C3.3624 38.2814 2.79866 37.9223 2.5122 37.6386C2.10903 37.2394 1.92779 37.0042 1.77251 36.3487C1.60178 35.628 1.715 8.9798 1.715 7.57829V7.57824ZM1.715 4.21887C1.715 3.22236 2.28031 2.35422 2.99948 1.99064C3.24491 1.86654 3.58119 1.71888 3.89763 1.71888H29.9332V6.6408H4.13143C2.82374 6.6408 1.71495 5.52949 1.71495 4.21892L1.715 4.21887ZM6.10352e-05 4.21887V35.7814C6.10352e-05 38.08 1.88303 40.0001 3.97552 40.0001H34.2205C34.7268 40.0001 35 39.4985 35 38.9845V7.6564C35 7.09144 34.6883 6.6408 34.1426 6.6408H31.6482V0.937657C31.6482 0.433351 31.3564 0.000167847 30.8686 0.000167847H3.97552C1.88755 0.000167847 6.10352e-05 1.91607 6.10352e-05 4.21892L6.10352e-05 4.21887Z" fill="#E1E1E6"/>
<path fill-rule="evenodd" clip-rule="evenodd" d="M8.34075 23.3594C8.34075 22.0814 8.70108 20.6624 9.09742 19.7427C9.63432 18.497 9.8718 18.281 10.5681 17.3886C10.7031 17.2156 10.7003 17.2041 10.8531 17.0492C11.6035 16.2891 12.4182 15.6515 13.4067 15.1554C16.5829 13.5611 20.876 14.0143 23.3657 16.3477L24.4182 17.4022C25.6282 18.6714 26.5813 21.052 26.5813 22.8906C26.5813 24.6389 26.4679 25.7747 25.6727 27.3706C24.9296 28.8621 23.9171 30.0092 22.5745 30.9061C19.9073 32.6879 16.785 32.9736 13.8188 31.6971C10.5755 30.3014 8.34071 26.9053 8.34071 23.3593L8.34075 23.3594ZM28.2962 23.75C28.2962 22.3315 28.3166 22.0454 27.969 20.6404C27.4067 18.368 26.1893 16.5639 24.4955 15.0591C22.8455 13.5932 20.1446 12.5 17.9288 12.5H16.9154C12.9313 12.5 9.00952 15.5109 7.51558 19.0949C6.12671 22.4269 6.41562 25.5955 8.10676 28.7501C9.42039 31.2005 12.1115 33.1833 14.9812 33.8916C17.3936 34.487 19.8421 34.1392 21.7711 33.3041C25.4039 31.7315 28.2962 27.8979 28.2962 23.75H28.2962Z" fill="#E1E1E6"/>
<path fill-rule="evenodd" clip-rule="evenodd" d="M16.6035 18.5156V23.1249C16.6035 23.9009 17.686 24.7176 18.4549 25.4882C18.8476 25.8818 20.2687 27.4999 20.7349 27.4999C21.3025 27.4999 21.6703 27.1936 21.6703 26.6406C21.6703 26.0451 19.059 23.6829 18.5272 23.15C18.3132 22.9356 18.3196 22.9774 18.3119 22.5846C18.3063 22.3049 18.3184 22.0021 18.3184 21.7187L18.3231 18.4327C18.2971 17.1088 16.6035 17.2006 16.6035 18.5155V18.5156Z" fill="#E1E1E6"/>
</g>
<defs>
<clipPath id="clip0_4956_848">
<rect width="35" height="40" fill="white"/>
</clipPath>
</defs>
</svg>
