<?xml version="1.0" encoding="UTF-8"?>
<!DOCTYPE svg PUBLIC "-//W3C//DTD SVG 1.1//EN" "http://www.w3.org/Graphics/SVG/1.1/DTD/svg11.dtd">
<!-- Creator: CorelDRAW 2019 (64-Bit) -->
<svg xmlns="http://www.w3.org/2000/svg" xml:space="preserve" width="4.01472in" height="4.14816in" version="1.1" style="shape-rendering:geometricPrecision; text-rendering:geometricPrecision; image-rendering:optimizeQuality; fill-rule:evenodd; clip-rule:evenodd"
viewBox="0 0 3125.57 3229.45"
 xmlns:xlink="http://www.w3.org/1999/xlink">
 <defs>
  <style type="text/css">
   <![CDATA[
    .fil0 {fill:black}
   ]]>
  </style>
 </defs>
 <g id="Layer_x0020_1">
  <metadata id="CorelCorpID_0Corel-Layer"/>
  <g id="_2219571777856">
   <path class="fil0" d="M83.43 2312.28l426.29 0 223.7 732.22c12.21,37.16 19.68,76.23 34.66,107.44l-452.12 0c-7.38,-31.66 -18.23,-67.23 -28.08,-101.1l-146.35 -525.38c-9.72,-37.08 -18.76,-67.92 -29.53,-106.1l-28.56 -107.08zm1608.26 484.42c-67.36,0 -229.34,-36.84 -305.34,-49.9l-308.25 -53.45c-96.7,0 -216.73,108.69 -316.49,161.47 -14.8,-30.84 -27.36,-85.36 -39.62,-121.85l-115.39 -369.02c193.08,-92.64 94.31,-63.64 213.03,-148.67 109.38,-78.34 270.8,-115.41 409.44,-73.35 156.19,47.38 112.12,86.38 359.28,86.38 174.74,0 393.1,-42.88 439.21,155.02 -42.38,-20.34 -333.46,-11.71 -426.11,-6.29 -59.25,3.47 -77.68,10.48 -77.68,51.5 0,15.53 10.47,18.99 19.38,32.3l195.56 -11.19c34.47,-2.88 286.67,23.29 366.36,4.73 13.4,-57.51 -16.64,-32.5 99,-94.76l193.81 -103.3c54.89,-26.96 150.38,-92.59 204.52,-92.59 45.66,0 91.07,19.65 109.8,45.21 -18.74,5 -104.78,67.21 -120.9,79.32l-593.44 407.69c-89.95,60.26 -188.5,100.75 -306.16,100.75zm400.45 -471.5c-7.44,-31.93 -25.48,-45.53 -32.29,-71.05 53.32,-12.42 217.41,-129.18 271.27,-129.18 32.28,0 56,14.45 77.51,25.84 -16.68,24.9 -45.91,31.47 -75.39,47.33l-79.71 43.01c-27.16,14.13 -48.95,27.48 -79.67,43.05 -29.08,14.74 -49.57,33.51 -81.72,41zm-174.39 -161.47l0 -12.92c95.4,-22.22 60.84,-69.28 219.6,-32.29 -12.52,17.09 -26.35,19.04 -46.44,31.07 -143.53,85.9 -90.15,21.05 -173.16,14.15zm541.11 -76.07l91.86 -1.43c-6.96,4.83 0.64,0.85 -12.56,6.81l-52.03 19.02 -27.27 -24.4zm-1135.33 -1.43l542.55 0c-9.26,12.63 -101.24,64.59 -122.72,64.59 -88.47,0 -241.77,7.64 -319,-16.86l-77.41 -32.39c-8.95,-4.54 -6.08,-3 -12.33,-7.04 -12.03,-7.78 -4.61,-2.66 -11.08,-8.29zm-1052.8 -484.42l2693.36 0c103.36,0 113.02,123.66 12.34,135.06 -57.6,6.52 -2002.95,0.58 -2079.19,0.58 -15.34,22.91 -19.38,10.16 -19.38,45.21 0,15.06 17.23,32.3 32.3,32.3l1976.42 0c0,24.09 -16.51,110.71 -23.78,131.23 -12.83,36.27 -45.7,62.53 -92.48,62.53l-2299.37 0c-138.33,0 -96.37,-125.39 -129.18,-193.76l374.62 0c27.75,-41.44 27.75,-36.07 0,-77.51 -124.87,0 -249.74,-0.03 -374.62,0 -65.43,0.02 -127.26,8.99 -146.35,-41.44 -20.73,-54.75 16.97,-94.2 75.31,-94.2zm2544.81 -77.51l-2396.25 0c61.21,-262.73 230.13,-481.97 417,-622.88 202.41,-152.63 440.64,-250.77 778.72,-259.28 528.55,-13.31 1076.02,347.71 1200.53,882.16zm-1259.48 -1046.34c43.63,10.16 85.55,10.16 129.18,0l0 83.96 -129.18 0 0 -83.96zm45.21 -393.99c52.84,0 93.96,-1.7 140.36,53.4 42.45,50.4 48.85,109.28 25.15,170.24 -56.23,144.65 -291.53,130.95 -311.7,-51.73 -9.35,-84.69 64.08,-171.91 146.19,-171.91zm-226.06 161.47c0,44.86 14.4,91.97 33.37,121.64 79.17,123.83 69.97,-4.94 69.97,201.3 -55.03,0 -171.35,25.78 -218.93,39.43 -153.92,44.15 -235.49,78.55 -366.81,156.36 -66.32,39.29 -133.02,88.81 -187.59,141.81 -15.12,14.69 -20.68,15.88 -35.59,29 -37.56,33.02 -38.69,44.58 -61.33,67.85 -42.81,43.97 -80.23,96.79 -115.4,149.41 -67.83,101.48 -126.13,237.17 -157.56,372.07 -67.72,0 -115.74,-7.83 -158.94,21.91 -117.32,80.73 -78.42,268.74 87.89,268.74 0,39.89 25.18,155.41 38.4,181.2 22.93,44.72 67.22,85.35 129.7,89.91 133.23,9.7 307.73,0.17 445.5,0.17 -21.73,18.88 -89.16,40.36 -147.04,98.4 -69.77,69.95 -76.2,66.38 -150.07,101.82 -2.51,-30.17 -26.15,-51.67 -58.13,-51.67l-465.04 0c-103.51,0 -37.78,152.6 -28.45,189.92l217.46 770.75c7.37,14.22 26.56,34 43.51,34l497.33 0c31.26,0 64.59,-28.89 64.59,-58.13 0,-46.37 -60.09,-184.92 -64.59,-238.98l136.9 -82.7c148.76,-93.06 117.09,-81.83 298.58,-49.21 82.46,14.82 376.87,73.78 436.47,73.78 169.59,0 247.95,-21.01 388.82,-114.97 87.63,-58.45 170.39,-118.23 257.09,-175.65 21.7,-14.38 37.41,-27.26 60.65,-42.69l130.5 -89.1c25.09,-16.7 40.36,-28.51 64.54,-45.26 22.63,-15.68 39.82,-26.29 62.12,-41.22 36.63,-24.52 185.95,-120.1 185.95,-143.45 0,-45.63 -58.99,-94.69 -98.91,-114.23l-49.64 -21.4c117.08,0 179.14,14.25 240.89,-49.76 42.46,-44 69.13,-176.4 69.13,-221.52 94.87,0 155.02,-69.61 155.02,-122.72 0,-58.28 -5.04,-110.98 -71.1,-148.51 -47.55,-27.01 -84.04,-19.43 -154.96,-19.43 -65.76,-282.27 -243.01,-543.6 -471.54,-703.98 -80.44,-56.45 -155.5,-103.29 -249.97,-144.03 -99.57,-42.94 -305.1,-107.91 -415.26,-107.91 0,-159.46 -10.37,-111.57 43.77,-169.37 14.39,-15.36 27.3,-38.26 36.69,-60.19 63.02,-147.17 -28.18,-338.82 -235.48,-338.82 -125.1,0 -232.52,116.36 -232.52,245.44z"/>
   <path class="fil0" d="M438.67 3016.31c0,-35.87 16.56,-38.54 45.21,-45.22 55.44,48.19 8.33,71.05 -12.92,71.05 -13.4,0 -32.3,-18.9 -32.3,-25.84zm32.3 109.8c53.19,0 116.26,-46.37 116.26,-96.88l0 -38.75c0,-87.84 -138.12,-134.3 -201.4,-59.31 -60.79,72.04 -10.75,194.94 85.14,194.94z"/>
   <path class="fil0" d="M845.58 1311.16c47.1,0 46.24,-19.37 90.3,-77.63 22.32,-29.51 48.94,-51.96 75.92,-79.09 45.66,-45.9 118.79,-76.34 116.36,-113.74 -1.19,-18.23 -19.75,-36.6 -37.82,-37.82 -49.29,-3.33 -197.46,151.74 -245.8,216.83 -33.53,45.15 -40.38,91.46 1.04,91.46z"/>
   <path class="fil0" d="M1155.61 975.29l6.46 38.75c83.24,19.93 128.22,-36.45 98.85,-72.65 -30.73,-37.86 -105.3,8.28 -105.3,33.9z"/>
  </g>
 </g>
</svg>
