<svg width="25" height="25" viewBox="0 0 25 25" fill="none" xmlns="http://www.w3.org/2000/svg">
<path d="M23.75 19.1667C23.75 19.7192 23.5345 20.2491 23.1509 20.6398C22.7673 21.0305 22.247 21.25 21.7045 21.25H3.29545C2.75297 21.25 2.2327 21.0305 1.8491 20.6398C1.4655 20.2491 1.25 19.7192 1.25 19.1667V7.70833C1.25 7.1558 1.4655 6.62589 1.8491 6.23519C2.2327 5.84449 2.75297 5.625 3.29545 5.625H7.38636L9.43182 2.5H15.5682L17.6136 5.625H21.7045C22.247 5.625 22.7673 5.84449 23.1509 6.23519C23.5345 6.62589 23.75 7.1558 23.75 7.70833V19.1667Z" stroke="#E1E1E6" stroke-width="1.5" stroke-linecap="round" stroke-linejoin="round"/>
<path d="M12.5 16.25C14.5711 16.25 16.25 14.5711 16.25 12.5C16.25 10.4289 14.5711 8.75 12.5 8.75C10.4289 8.75 8.75 10.4289 8.75 12.5C8.75 14.5711 10.4289 16.25 12.5 16.25Z" stroke="#E1E1E6" stroke-width="1.5" stroke-linecap="round" stroke-linejoin="round"/>
</svg>
