<svg width="186" height="186" viewBox="0 0 186 186" fill="none" xmlns="http://www.w3.org/2000/svg">
<g clip-path="url(#clip0_4254_1234)">
<path d="M186 93C186 41.6375 144.362 0 93 0C41.6375 0 0 41.6375 0 93C0 144.362 41.6375 186 93 186C144.362 186 186 144.362 186 93Z" fill="#0D1D25"/>
<mask id="path-2-inside-1_4254_1234" fill="white">
<path d="M70.627 90.1624H82.3817C83.6184 90.161 84.804 89.6691 85.6785 88.7946C86.5529 87.9201 87.0448 86.7345 87.0463 85.4978V73.7429C87.0448 72.5062 86.5529 71.3206 85.6785 70.4461C84.804 69.5716 83.6184 69.0797 82.3817 69.0783H70.627C69.3903 69.0797 68.2046 69.5716 67.3302 70.4461C66.4557 71.3206 65.9638 72.5062 65.9624 73.7429V85.4976C65.9638 86.7343 66.4557 87.9199 67.3302 88.7944C68.2046 89.6688 69.3903 90.161 70.627 90.1624ZM69.0721 73.7429C69.0725 73.3306 69.2365 72.9354 69.528 72.6439C69.8195 72.3524 70.2147 72.1884 70.627 72.188H82.3817C82.7939 72.1884 83.1892 72.3524 83.4807 72.6439C83.7722 72.9354 83.9361 73.3306 83.9366 73.7429V85.4976C83.9361 85.9098 83.7722 86.3051 83.4807 86.5966C83.1892 86.8881 82.7939 87.052 82.3817 87.0525H70.627C70.2147 87.052 69.8195 86.8881 69.528 86.5966C69.2365 86.3051 69.0725 85.9098 69.0721 85.4976V73.7429ZM90.3903 68.4582C91.3128 68.4582 92.2147 68.1846 92.9818 67.6721C93.7488 67.1595 94.3467 66.431 94.6998 65.5787C95.0528 64.7263 95.1452 63.7885 94.9652 62.8836C94.7852 61.9788 94.341 61.1476 93.6886 60.4953C93.0363 59.8429 92.2051 59.3987 91.3003 59.2187C90.3954 59.0387 89.4575 59.1311 88.6052 59.4841C87.7529 59.8372 87.0244 60.435 86.5118 61.2021C85.9992 61.9692 85.7257 62.8711 85.7257 63.7936C85.7271 65.0303 86.219 66.2159 87.0935 67.0904C87.9679 67.9649 89.1536 68.4568 90.3903 68.4582ZM90.3903 62.2388C90.6978 62.2388 90.9984 62.33 91.2541 62.5008C91.5098 62.6717 91.7091 62.9145 91.8268 63.1986C91.9444 63.4827 91.9752 63.7954 91.9152 64.097C91.8552 64.3986 91.7072 64.6756 91.4897 64.8931C91.2723 65.1105 90.9952 65.2586 90.6936 65.3186C90.392 65.3786 90.0793 65.3478 89.7952 65.2301C89.5111 65.1124 89.2683 64.9132 89.0974 64.6575C88.9266 64.4018 88.8354 64.1011 88.8354 63.7936C88.8358 63.3814 88.9998 62.9862 89.2913 62.6947C89.5828 62.4032 89.978 62.2392 90.3903 62.2388ZM100.529 87.2513H111.4C112.637 87.2498 113.822 86.7579 114.697 85.8835C115.571 85.009 116.063 83.8234 116.065 82.5867V71.7159C116.063 70.4793 115.571 69.2936 114.697 68.4192C113.822 67.5447 112.637 67.0528 111.4 67.0514H100.529C99.2925 67.0528 98.1069 67.5447 97.2324 68.4192C96.3579 69.2936 95.866 70.4793 95.8646 71.7159V82.5869C95.866 83.8236 96.3579 85.0092 97.2324 85.8837C98.1069 86.7581 99.2925 87.2498 100.529 87.2513ZM98.9743 71.7159C98.9748 71.3037 99.1387 70.9085 99.4302 70.617C99.7217 70.3255 100.117 70.1615 100.529 70.1611H111.4C111.812 70.1615 112.207 70.3255 112.499 70.617C112.79 70.9085 112.954 71.3037 112.955 71.7159V82.5869C112.954 82.9991 112.79 83.3944 112.499 83.6859C112.207 83.9774 111.812 84.1413 111.4 84.1418H100.529C100.117 84.1413 99.7217 83.9774 99.4302 83.6859C99.1387 83.3944 98.9748 82.9991 98.9743 82.5869V71.7159ZM92.8067 84.4459C92.475 84.2009 92.0595 84.0977 91.6517 84.159C91.2439 84.2203 90.8772 84.4411 90.6322 84.7728C90.3872 85.1045 90.284 85.52 90.3453 85.9278C90.4066 86.3356 90.6274 86.7023 90.9591 86.9473C91.9499 87.6792 92.5032 88.4079 92.6042 89.1132C92.6614 89.5147 92.5714 89.8344 92.3935 90.4112C92.083 91.2712 91.9566 92.187 92.0224 93.099C92.1522 94.545 92.8098 95.9162 93.9772 97.1744C94.2577 97.4767 94.6468 97.6552 95.0589 97.6706C95.471 97.686 95.8723 97.5371 96.1746 97.2566C96.4769 96.9761 96.6554 96.587 96.6708 96.1749C96.6863 95.7628 96.5373 95.3615 96.2568 95.0592C95.569 94.318 95.1865 93.565 95.1197 92.8212C95.0712 92.2807 95.201 91.8599 95.3652 91.3275C95.5773 90.6398 95.841 89.7838 95.6826 88.6739C95.4595 87.1132 94.492 85.6906 92.8067 84.4459ZM93.5 114.878C92.2699 114.878 91.0674 115.242 90.0446 115.926C89.0219 116.609 88.2247 117.581 87.754 118.717C87.2832 119.853 87.1601 121.104 87.4 122.31C87.64 123.517 88.2324 124.625 89.1022 125.495C89.972 126.365 91.0802 126.957 92.2866 127.197C93.4931 127.437 94.7436 127.314 95.8801 126.843C97.0165 126.372 97.9878 125.575 98.6712 124.552C99.3546 123.53 99.7194 122.327 99.7194 121.097C99.7175 119.448 99.0617 117.867 97.8957 116.701C96.7298 115.535 95.1489 114.879 93.5 114.878ZM93.5 124.207C92.8849 124.207 92.2837 124.024 91.7723 123.683C91.2609 123.341 90.8623 122.855 90.627 122.287C90.3916 121.719 90.33 121.094 90.45 120.49C90.57 119.887 90.8662 119.333 91.3011 118.898C91.736 118.463 92.2901 118.167 92.8933 118.047C93.4965 117.927 94.1218 117.989 94.69 118.224C95.2582 118.459 95.7439 118.858 96.0856 119.369C96.4273 119.881 96.6097 120.482 96.6097 121.097C96.6088 121.922 96.2808 122.712 95.6978 123.295C95.1149 123.878 94.3244 124.206 93.5 124.207ZM125.215 90.7949C124.841 89.9605 124.295 89.2141 123.614 88.604C123.184 88.1805 122.953 87.9416 122.813 87.5612C122.568 86.8922 122.71 85.9881 123.235 84.8738C123.41 84.501 123.429 84.0743 123.289 83.6872C123.15 83.3001 122.862 82.9841 122.49 82.8086C122.118 82.633 121.691 82.6122 121.304 82.7507C120.916 82.8892 120.599 83.1757 120.422 83.5474C119.529 85.4427 119.351 87.1538 119.894 88.6332C120.281 89.6858 120.919 90.3141 121.432 90.8194C121.829 91.2106 122.142 91.5195 122.356 92.0185C122.65 92.7051 122.67 93.5493 122.416 94.5278C122.362 94.7262 122.348 94.9331 122.375 95.1368C122.402 95.3405 122.469 95.5369 122.572 95.7145C122.675 95.8922 122.813 96.0476 122.976 96.1719C123.14 96.2961 123.327 96.3867 123.525 96.4384C123.724 96.4901 123.931 96.5018 124.135 96.473C124.338 96.4441 124.534 96.3753 124.711 96.2703C124.887 96.1654 125.041 96.0265 125.164 95.8617C125.287 95.6969 125.375 95.5093 125.425 95.31C125.857 93.649 125.786 92.13 125.215 90.7947L125.215 90.7949ZM93.5 53.13C71.0945 53.13 52.8663 71.3581 52.8663 93.7636C52.8663 116.169 71.0945 134.397 93.5 134.397C115.905 134.397 134.134 116.169 134.134 93.7636C134.134 71.3581 115.905 53.13 93.5 53.13ZM93.5 131.288C72.8092 131.288 55.976 114.454 55.976 93.7636C55.976 73.0728 72.8092 56.2397 93.5 56.2397C114.191 56.2397 131.024 73.0728 131.024 93.7636C131.024 114.454 114.191 131.288 93.5 131.288ZM115.072 93.4261H104.251C103.014 93.4276 101.829 93.9195 100.954 94.7939C100.08 95.6684 99.588 96.854 99.5865 98.0907V108.911C99.588 110.148 100.08 111.334 100.954 112.208C101.829 113.083 103.014 113.575 104.251 113.576H115.072C116.309 113.575 117.494 113.083 118.369 112.208C119.243 111.334 119.735 110.148 119.737 108.911V98.0907C119.735 96.854 119.243 95.6684 118.369 94.7939C117.494 93.9195 116.309 93.4276 115.072 93.4261ZM116.627 108.911C116.627 109.324 116.463 109.719 116.171 110.01C115.88 110.302 115.484 110.466 115.072 110.466H104.251C103.839 110.466 103.444 110.302 103.152 110.01C102.861 109.719 102.697 109.324 102.696 108.911V98.0907C102.697 97.6785 102.861 97.2832 103.152 96.9918C103.444 96.7003 103.839 96.5363 104.251 96.5359H115.072C115.484 96.5363 115.88 96.7003 116.171 96.9918C116.463 97.2832 116.627 97.6785 116.627 98.0907V108.911ZM65.4493 92.6172C64.4868 92.6172 63.5459 92.9026 62.7457 93.4373C61.9454 93.9721 61.3217 94.7321 60.9534 95.6213C60.5851 96.5105 60.4887 97.489 60.6765 98.4329C60.8643 99.3769 61.3278 100.244 62.0084 100.925C62.6889 101.605 63.5561 102.069 64.5 102.256C65.444 102.444 66.4225 102.348 67.3117 101.979C68.2009 101.611 68.9609 100.987 69.4956 100.187C70.0302 99.3866 70.3156 98.4458 70.3156 97.4833C70.314 96.1931 69.8008 94.9563 68.8886 94.0441C67.9763 93.1318 66.7394 92.6187 65.4493 92.6172ZM65.4493 99.2401C65.1019 99.2401 64.7623 99.1371 64.4734 98.944C64.1845 98.751 63.9594 98.4767 63.8264 98.1558C63.6935 97.8348 63.6587 97.4816 63.7264 97.1409C63.7942 96.8001 63.9615 96.4871 64.2071 96.2415C64.4528 95.9958 64.7657 95.8285 65.1065 95.7607C65.4472 95.6929 65.8004 95.7276 66.1213 95.8606C66.4423 95.9935 66.7167 96.2186 66.9097 96.5074C67.1028 96.7963 67.2058 97.1359 67.2059 97.4833C67.2054 97.949 67.0202 98.3956 66.6909 98.725C66.3616 99.0543 65.915 99.2396 65.4493 99.2401ZM131.028 56.2356C121.075 46.2825 107.576 40.6909 93.5 40.6909C79.4242 40.6909 65.925 46.2825 55.9719 56.2356C46.0188 66.1886 40.4272 79.6879 40.4272 93.7636C40.4272 107.839 46.0188 121.339 55.9719 131.292C65.925 141.245 79.4242 146.836 93.5 146.836C107.576 146.836 121.075 141.245 131.028 131.292C140.981 121.339 146.573 107.839 146.573 93.7636C146.573 79.6879 140.981 66.1886 131.028 56.2356ZM128.829 129.093C119.459 138.463 106.751 143.727 93.5 143.727C80.249 143.727 67.5407 138.463 58.1709 129.093C48.801 119.723 43.5371 107.015 43.5371 93.7636C43.5371 80.5127 48.801 67.8044 58.1709 58.4345C67.5407 49.0647 80.249 43.8008 93.5 43.8008C106.751 43.8008 119.459 49.0647 128.829 58.4345C138.199 67.8044 143.463 80.5127 143.463 93.7636C143.463 107.015 138.199 119.723 128.829 129.093ZM73.151 113.459C72.721 113.036 72.4901 112.797 72.3502 112.416C72.1045 111.747 72.2465 110.843 72.7718 109.729C72.861 109.544 72.9127 109.343 72.9238 109.138C72.935 108.933 72.9055 108.728 72.8369 108.535C72.7684 108.341 72.6622 108.163 72.5245 108.011C72.3868 107.859 72.2203 107.735 72.0346 107.648C71.8489 107.56 71.6477 107.51 71.4426 107.501C71.2376 107.491 71.0326 107.522 70.8397 107.593C70.6468 107.663 70.4696 107.771 70.3186 107.91C70.1675 108.049 70.0454 108.216 69.9594 108.403C69.0653 110.298 68.8876 112.009 69.4312 113.488C69.8178 114.541 70.4559 115.169 70.9686 115.675C71.3656 116.066 71.6793 116.374 71.8928 116.874C72.1866 117.56 72.2067 118.404 71.9523 119.383C71.8486 119.782 71.9077 120.206 72.1166 120.562C72.3256 120.917 72.6672 121.175 73.0663 121.279C73.4655 121.383 73.8895 121.324 74.245 121.115C74.6006 120.906 74.8586 120.564 74.9623 120.165C75.3935 118.504 75.323 116.985 74.7517 115.65C74.3775 114.816 73.832 114.069 73.151 113.459ZM92.4756 105.89C93.7403 103.377 92.9923 100.955 92.7329 100.272C92.5886 99.893 92.302 99.5852 91.9341 99.4144C91.5662 99.2437 91.1461 99.2233 90.7634 99.3578C90.4741 99.4635 90.177 99.5466 89.8749 99.6062L89.8778 99.5573C89.9865 98.5699 89.86 97.5708 89.5088 96.6416C89.1177 95.7059 88.4879 94.8893 87.6823 94.2732C87.4089 94.0576 87.0711 93.94 86.7229 93.9393C86.3748 93.9386 86.0364 94.0548 85.7622 94.2693C84.5194 95.2256 83.5898 96.5305 83.092 98.0175C82.8871 97.8208 82.6303 97.5515 82.3162 97.1827C82.1786 97.0212 82.0093 96.8896 81.8189 96.796C81.6285 96.7023 81.421 96.6487 81.2091 96.6383C80.9972 96.6278 80.7854 96.6609 80.5867 96.7354C80.3881 96.81 80.2068 96.9243 80.054 97.0716C78.9352 98.1458 78.1841 99.5458 77.9076 101.072C77.631 102.598 77.8433 104.173 78.514 105.571C78.6382 105.831 78.7777 106.083 78.9318 106.326C79.4513 107.14 80.1243 107.844 80.9131 108.4C81.6459 108.91 82.4611 109.289 83.3229 109.522C83.2588 109.765 83.1657 110 83.0457 110.222C82.7907 110.685 82.488 110.949 82.0295 111.348C81.4204 111.852 80.8723 112.425 80.3962 113.056C79.2504 114.605 78.603 116.502 78.4724 118.693C78.4478 119.104 78.5878 119.509 78.8615 119.817C79.1352 120.126 79.5202 120.313 79.9319 120.337C79.9636 120.339 79.9947 120.34 80.026 120.34C80.4221 120.34 80.8031 120.188 81.0913 119.916C81.3795 119.645 81.5531 119.273 81.5767 118.878C81.6708 117.298 82.1149 115.962 82.8965 114.905C83.2394 114.456 83.6341 114.049 84.0723 113.693C84.7583 113.149 85.3345 112.48 85.7702 111.721C86.0994 111.116 86.3283 110.463 86.4482 109.785C86.8695 109.745 87.2874 109.674 87.6983 109.572C89.8564 109.032 91.5531 107.724 92.4756 105.89ZM86.4127 106.66C86.3215 106.144 86.2002 105.635 86.0495 105.133C85.9314 104.738 85.6612 104.406 85.2983 104.21C84.9354 104.014 84.5096 103.971 84.1144 104.089C83.7193 104.207 83.3872 104.477 83.1913 104.84C82.9954 105.203 82.9517 105.629 83.0698 106.024C83.0774 106.049 83.0839 106.074 83.0911 106.099C82.9579 106.026 82.8287 105.945 82.7041 105.858C82.2478 105.537 81.8584 105.13 81.5576 104.66C81.4698 104.521 81.3903 104.378 81.3196 104.23C80.9376 103.429 80.8128 102.529 80.9624 101.655C81.027 101.286 81.1405 100.928 81.2997 100.589C82.2345 101.385 83.291 101.894 84.3821 101.461C85.3971 101.058 85.6863 100.127 85.8975 99.4476C86.0402 98.9164 86.26 98.409 86.55 97.9417C86.5762 97.901 86.6032 97.8606 86.6308 97.8204C86.8373 98.3318 86.8081 98.8118 86.7739 99.3671C86.7274 100.128 86.6636 101.169 87.4957 101.995C88.2265 102.719 89.2154 102.82 90.0838 102.72C90.1045 103.334 89.9718 103.943 89.6978 104.493C89.188 105.506 88.2097 106.238 86.9426 106.556C86.7676 106.6 86.5906 106.634 86.4127 106.66ZM113.656 117.132L113.604 117.132C111.91 117.132 110.473 117.574 109.332 118.447C108.616 119.016 108.027 119.728 107.603 120.538C107.298 121.059 107.124 121.342 106.789 121.572C106.202 121.974 105.291 122.059 104.081 121.824C103.678 121.75 103.262 121.837 102.923 122.068C102.584 122.299 102.35 122.654 102.272 123.057C102.194 123.459 102.278 123.876 102.505 124.217C102.733 124.558 103.086 124.795 103.488 124.877C104.081 124.996 104.684 125.058 105.289 125.062C106.444 125.095 107.582 124.772 108.547 124.136C109.472 123.503 109.924 122.729 110.287 122.108C110.569 121.627 110.791 121.247 111.222 120.917C111.808 120.469 112.609 120.241 113.604 120.241H113.648C114.06 120.242 114.456 120.08 114.749 119.789C115.041 119.498 115.206 119.103 115.207 118.69C115.208 118.278 115.045 117.882 114.754 117.59C114.464 117.297 114.069 117.133 113.656 117.132L113.656 117.132Z"/>
</mask>
<path d="M70.627 90.1624H82.3817C83.6184 90.161 84.804 89.6691 85.6785 88.7946C86.5529 87.9201 87.0448 86.7345 87.0463 85.4978V73.7429C87.0448 72.5062 86.5529 71.3206 85.6785 70.4461C84.804 69.5716 83.6184 69.0797 82.3817 69.0783H70.627C69.3903 69.0797 68.2046 69.5716 67.3302 70.4461C66.4557 71.3206 65.9638 72.5062 65.9624 73.7429V85.4976C65.9638 86.7343 66.4557 87.9199 67.3302 88.7944C68.2046 89.6688 69.3903 90.161 70.627 90.1624ZM69.0721 73.7429C69.0725 73.3306 69.2365 72.9354 69.528 72.6439C69.8195 72.3524 70.2147 72.1884 70.627 72.188H82.3817C82.7939 72.1884 83.1892 72.3524 83.4807 72.6439C83.7722 72.9354 83.9361 73.3306 83.9366 73.7429V85.4976C83.9361 85.9098 83.7722 86.3051 83.4807 86.5966C83.1892 86.8881 82.7939 87.052 82.3817 87.0525H70.627C70.2147 87.052 69.8195 86.8881 69.528 86.5966C69.2365 86.3051 69.0725 85.9098 69.0721 85.4976V73.7429ZM90.3903 68.4582C91.3128 68.4582 92.2147 68.1846 92.9818 67.6721C93.7488 67.1595 94.3467 66.431 94.6998 65.5787C95.0528 64.7263 95.1452 63.7885 94.9652 62.8836C94.7852 61.9788 94.341 61.1476 93.6886 60.4953C93.0363 59.8429 92.2051 59.3987 91.3003 59.2187C90.3954 59.0387 89.4575 59.1311 88.6052 59.4841C87.7529 59.8372 87.0244 60.435 86.5118 61.2021C85.9992 61.9692 85.7257 62.8711 85.7257 63.7936C85.7271 65.0303 86.219 66.2159 87.0935 67.0904C87.9679 67.9649 89.1536 68.4568 90.3903 68.4582ZM90.3903 62.2388C90.6978 62.2388 90.9984 62.33 91.2541 62.5008C91.5098 62.6717 91.7091 62.9145 91.8268 63.1986C91.9444 63.4827 91.9752 63.7954 91.9152 64.097C91.8552 64.3986 91.7072 64.6756 91.4897 64.8931C91.2723 65.1105 90.9952 65.2586 90.6936 65.3186C90.392 65.3786 90.0793 65.3478 89.7952 65.2301C89.5111 65.1124 89.2683 64.9132 89.0974 64.6575C88.9266 64.4018 88.8354 64.1011 88.8354 63.7936C88.8358 63.3814 88.9998 62.9862 89.2913 62.6947C89.5828 62.4032 89.978 62.2392 90.3903 62.2388ZM100.529 87.2513H111.4C112.637 87.2498 113.822 86.7579 114.697 85.8835C115.571 85.009 116.063 83.8234 116.065 82.5867V71.7159C116.063 70.4793 115.571 69.2936 114.697 68.4192C113.822 67.5447 112.637 67.0528 111.4 67.0514H100.529C99.2925 67.0528 98.1069 67.5447 97.2324 68.4192C96.3579 69.2936 95.866 70.4793 95.8646 71.7159V82.5869C95.866 83.8236 96.3579 85.0092 97.2324 85.8837C98.1069 86.7581 99.2925 87.2498 100.529 87.2513ZM98.9743 71.7159C98.9748 71.3037 99.1387 70.9085 99.4302 70.617C99.7217 70.3255 100.117 70.1615 100.529 70.1611H111.4C111.812 70.1615 112.207 70.3255 112.499 70.617C112.79 70.9085 112.954 71.3037 112.955 71.7159V82.5869C112.954 82.9991 112.79 83.3944 112.499 83.6859C112.207 83.9774 111.812 84.1413 111.4 84.1418H100.529C100.117 84.1413 99.7217 83.9774 99.4302 83.6859C99.1387 83.3944 98.9748 82.9991 98.9743 82.5869V71.7159ZM92.8067 84.4459C92.475 84.2009 92.0595 84.0977 91.6517 84.159C91.2439 84.2203 90.8772 84.4411 90.6322 84.7728C90.3872 85.1045 90.284 85.52 90.3453 85.9278C90.4066 86.3356 90.6274 86.7023 90.9591 86.9473C91.9499 87.6792 92.5032 88.4079 92.6042 89.1132C92.6614 89.5147 92.5714 89.8344 92.3935 90.4112C92.083 91.2712 91.9566 92.187 92.0224 93.099C92.1522 94.545 92.8098 95.9162 93.9772 97.1744C94.2577 97.4767 94.6468 97.6552 95.0589 97.6706C95.471 97.686 95.8723 97.5371 96.1746 97.2566C96.4769 96.9761 96.6554 96.587 96.6708 96.1749C96.6863 95.7628 96.5373 95.3615 96.2568 95.0592C95.569 94.318 95.1865 93.565 95.1197 92.8212C95.0712 92.2807 95.201 91.8599 95.3652 91.3275C95.5773 90.6398 95.841 89.7838 95.6826 88.6739C95.4595 87.1132 94.492 85.6906 92.8067 84.4459ZM93.5 114.878C92.2699 114.878 91.0674 115.242 90.0446 115.926C89.0219 116.609 88.2247 117.581 87.754 118.717C87.2832 119.853 87.1601 121.104 87.4 122.31C87.64 123.517 88.2324 124.625 89.1022 125.495C89.972 126.365 91.0802 126.957 92.2866 127.197C93.4931 127.437 94.7436 127.314 95.8801 126.843C97.0165 126.372 97.9878 125.575 98.6712 124.552C99.3546 123.53 99.7194 122.327 99.7194 121.097C99.7175 119.448 99.0617 117.867 97.8957 116.701C96.7298 115.535 95.1489 114.879 93.5 114.878ZM93.5 124.207C92.8849 124.207 92.2837 124.024 91.7723 123.683C91.2609 123.341 90.8623 122.855 90.627 122.287C90.3916 121.719 90.33 121.094 90.45 120.49C90.57 119.887 90.8662 119.333 91.3011 118.898C91.736 118.463 92.2901 118.167 92.8933 118.047C93.4965 117.927 94.1218 117.989 94.69 118.224C95.2582 118.459 95.7439 118.858 96.0856 119.369C96.4273 119.881 96.6097 120.482 96.6097 121.097C96.6088 121.922 96.2808 122.712 95.6978 123.295C95.1149 123.878 94.3244 124.206 93.5 124.207ZM125.215 90.7949C124.841 89.9605 124.295 89.2141 123.614 88.604C123.184 88.1805 122.953 87.9416 122.813 87.5612C122.568 86.8922 122.71 85.9881 123.235 84.8738C123.41 84.501 123.429 84.0743 123.289 83.6872C123.15 83.3001 122.862 82.9841 122.49 82.8086C122.118 82.633 121.691 82.6122 121.304 82.7507C120.916 82.8892 120.599 83.1757 120.422 83.5474C119.529 85.4427 119.351 87.1538 119.894 88.6332C120.281 89.6858 120.919 90.3141 121.432 90.8194C121.829 91.2106 122.142 91.5195 122.356 92.0185C122.65 92.7051 122.67 93.5493 122.416 94.5278C122.362 94.7262 122.348 94.9331 122.375 95.1368C122.402 95.3405 122.469 95.5369 122.572 95.7145C122.675 95.8922 122.813 96.0476 122.976 96.1719C123.14 96.2961 123.327 96.3867 123.525 96.4384C123.724 96.4901 123.931 96.5018 124.135 96.473C124.338 96.4441 124.534 96.3753 124.711 96.2703C124.887 96.1654 125.041 96.0265 125.164 95.8617C125.287 95.6969 125.375 95.5093 125.425 95.31C125.857 93.649 125.786 92.13 125.215 90.7947L125.215 90.7949ZM93.5 53.13C71.0945 53.13 52.8663 71.3581 52.8663 93.7636C52.8663 116.169 71.0945 134.397 93.5 134.397C115.905 134.397 134.134 116.169 134.134 93.7636C134.134 71.3581 115.905 53.13 93.5 53.13ZM93.5 131.288C72.8092 131.288 55.976 114.454 55.976 93.7636C55.976 73.0728 72.8092 56.2397 93.5 56.2397C114.191 56.2397 131.024 73.0728 131.024 93.7636C131.024 114.454 114.191 131.288 93.5 131.288ZM115.072 93.4261H104.251C103.014 93.4276 101.829 93.9195 100.954 94.7939C100.08 95.6684 99.588 96.854 99.5865 98.0907V108.911C99.588 110.148 100.08 111.334 100.954 112.208C101.829 113.083 103.014 113.575 104.251 113.576H115.072C116.309 113.575 117.494 113.083 118.369 112.208C119.243 111.334 119.735 110.148 119.737 108.911V98.0907C119.735 96.854 119.243 95.6684 118.369 94.7939C117.494 93.9195 116.309 93.4276 115.072 93.4261ZM116.627 108.911C116.627 109.324 116.463 109.719 116.171 110.01C115.88 110.302 115.484 110.466 115.072 110.466H104.251C103.839 110.466 103.444 110.302 103.152 110.01C102.861 109.719 102.697 109.324 102.696 108.911V98.0907C102.697 97.6785 102.861 97.2832 103.152 96.9918C103.444 96.7003 103.839 96.5363 104.251 96.5359H115.072C115.484 96.5363 115.88 96.7003 116.171 96.9918C116.463 97.2832 116.627 97.6785 116.627 98.0907V108.911ZM65.4493 92.6172C64.4868 92.6172 63.5459 92.9026 62.7457 93.4373C61.9454 93.9721 61.3217 94.7321 60.9534 95.6213C60.5851 96.5105 60.4887 97.489 60.6765 98.4329C60.8643 99.3769 61.3278 100.244 62.0084 100.925C62.6889 101.605 63.5561 102.069 64.5 102.256C65.444 102.444 66.4225 102.348 67.3117 101.979C68.2009 101.611 68.9609 100.987 69.4956 100.187C70.0302 99.3866 70.3156 98.4458 70.3156 97.4833C70.314 96.1931 69.8008 94.9563 68.8886 94.0441C67.9763 93.1318 66.7394 92.6187 65.4493 92.6172ZM65.4493 99.2401C65.1019 99.2401 64.7623 99.1371 64.4734 98.944C64.1845 98.751 63.9594 98.4767 63.8264 98.1558C63.6935 97.8348 63.6587 97.4816 63.7264 97.1409C63.7942 96.8001 63.9615 96.4871 64.2071 96.2415C64.4528 95.9958 64.7657 95.8285 65.1065 95.7607C65.4472 95.6929 65.8004 95.7276 66.1213 95.8606C66.4423 95.9935 66.7167 96.2186 66.9097 96.5074C67.1028 96.7963 67.2058 97.1359 67.2059 97.4833C67.2054 97.949 67.0202 98.3956 66.6909 98.725C66.3616 99.0543 65.915 99.2396 65.4493 99.2401ZM131.028 56.2356C121.075 46.2825 107.576 40.6909 93.5 40.6909C79.4242 40.6909 65.925 46.2825 55.9719 56.2356C46.0188 66.1886 40.4272 79.6879 40.4272 93.7636C40.4272 107.839 46.0188 121.339 55.9719 131.292C65.925 141.245 79.4242 146.836 93.5 146.836C107.576 146.836 121.075 141.245 131.028 131.292C140.981 121.339 146.573 107.839 146.573 93.7636C146.573 79.6879 140.981 66.1886 131.028 56.2356ZM128.829 129.093C119.459 138.463 106.751 143.727 93.5 143.727C80.249 143.727 67.5407 138.463 58.1709 129.093C48.801 119.723 43.5371 107.015 43.5371 93.7636C43.5371 80.5127 48.801 67.8044 58.1709 58.4345C67.5407 49.0647 80.249 43.8008 93.5 43.8008C106.751 43.8008 119.459 49.0647 128.829 58.4345C138.199 67.8044 143.463 80.5127 143.463 93.7636C143.463 107.015 138.199 119.723 128.829 129.093ZM73.151 113.459C72.721 113.036 72.4901 112.797 72.3502 112.416C72.1045 111.747 72.2465 110.843 72.7718 109.729C72.861 109.544 72.9127 109.343 72.9238 109.138C72.935 108.933 72.9055 108.728 72.8369 108.535C72.7684 108.341 72.6622 108.163 72.5245 108.011C72.3868 107.859 72.2203 107.735 72.0346 107.648C71.8489 107.56 71.6477 107.51 71.4426 107.501C71.2376 107.491 71.0326 107.522 70.8397 107.593C70.6468 107.663 70.4696 107.771 70.3186 107.91C70.1675 108.049 70.0454 108.216 69.9594 108.403C69.0653 110.298 68.8876 112.009 69.4312 113.488C69.8178 114.541 70.4559 115.169 70.9686 115.675C71.3656 116.066 71.6793 116.374 71.8928 116.874C72.1866 117.56 72.2067 118.404 71.9523 119.383C71.8486 119.782 71.9077 120.206 72.1166 120.562C72.3256 120.917 72.6672 121.175 73.0663 121.279C73.4655 121.383 73.8895 121.324 74.245 121.115C74.6006 120.906 74.8586 120.564 74.9623 120.165C75.3935 118.504 75.323 116.985 74.7517 115.65C74.3775 114.816 73.832 114.069 73.151 113.459ZM92.4756 105.89C93.7403 103.377 92.9923 100.955 92.7329 100.272C92.5886 99.893 92.302 99.5852 91.9341 99.4144C91.5662 99.2437 91.1461 99.2233 90.7634 99.3578C90.4741 99.4635 90.177 99.5466 89.8749 99.6062L89.8778 99.5573C89.9865 98.5699 89.86 97.5708 89.5088 96.6416C89.1177 95.7059 88.4879 94.8893 87.6823 94.2732C87.4089 94.0576 87.0711 93.94 86.7229 93.9393C86.3748 93.9386 86.0364 94.0548 85.7622 94.2693C84.5194 95.2256 83.5898 96.5305 83.092 98.0175C82.8871 97.8208 82.6303 97.5515 82.3162 97.1827C82.1786 97.0212 82.0093 96.8896 81.8189 96.796C81.6285 96.7023 81.421 96.6487 81.2091 96.6383C80.9972 96.6278 80.7854 96.6609 80.5867 96.7354C80.3881 96.81 80.2068 96.9243 80.054 97.0716C78.9352 98.1458 78.1841 99.5458 77.9076 101.072C77.631 102.598 77.8433 104.173 78.514 105.571C78.6382 105.831 78.7777 106.083 78.9318 106.326C79.4513 107.14 80.1243 107.844 80.9131 108.4C81.6459 108.91 82.4611 109.289 83.3229 109.522C83.2588 109.765 83.1657 110 83.0457 110.222C82.7907 110.685 82.488 110.949 82.0295 111.348C81.4204 111.852 80.8723 112.425 80.3962 113.056C79.2504 114.605 78.603 116.502 78.4724 118.693C78.4478 119.104 78.5878 119.509 78.8615 119.817C79.1352 120.126 79.5202 120.313 79.9319 120.337C79.9636 120.339 79.9947 120.34 80.026 120.34C80.4221 120.34 80.8031 120.188 81.0913 119.916C81.3795 119.645 81.5531 119.273 81.5767 118.878C81.6708 117.298 82.1149 115.962 82.8965 114.905C83.2394 114.456 83.6341 114.049 84.0723 113.693C84.7583 113.149 85.3345 112.48 85.7702 111.721C86.0994 111.116 86.3283 110.463 86.4482 109.785C86.8695 109.745 87.2874 109.674 87.6983 109.572C89.8564 109.032 91.5531 107.724 92.4756 105.89ZM86.4127 106.66C86.3215 106.144 86.2002 105.635 86.0495 105.133C85.9314 104.738 85.6612 104.406 85.2983 104.21C84.9354 104.014 84.5096 103.971 84.1144 104.089C83.7193 104.207 83.3872 104.477 83.1913 104.84C82.9954 105.203 82.9517 105.629 83.0698 106.024C83.0774 106.049 83.0839 106.074 83.0911 106.099C82.9579 106.026 82.8287 105.945 82.7041 105.858C82.2478 105.537 81.8584 105.13 81.5576 104.66C81.4698 104.521 81.3903 104.378 81.3196 104.23C80.9376 103.429 80.8128 102.529 80.9624 101.655C81.027 101.286 81.1405 100.928 81.2997 100.589C82.2345 101.385 83.291 101.894 84.3821 101.461C85.3971 101.058 85.6863 100.127 85.8975 99.4476C86.0402 98.9164 86.26 98.409 86.55 97.9417C86.5762 97.901 86.6032 97.8606 86.6308 97.8204C86.8373 98.3318 86.8081 98.8118 86.7739 99.3671C86.7274 100.128 86.6636 101.169 87.4957 101.995C88.2265 102.719 89.2154 102.82 90.0838 102.72C90.1045 103.334 89.9718 103.943 89.6978 104.493C89.188 105.506 88.2097 106.238 86.9426 106.556C86.7676 106.6 86.5906 106.634 86.4127 106.66ZM113.656 117.132L113.604 117.132C111.91 117.132 110.473 117.574 109.332 118.447C108.616 119.016 108.027 119.728 107.603 120.538C107.298 121.059 107.124 121.342 106.789 121.572C106.202 121.974 105.291 122.059 104.081 121.824C103.678 121.75 103.262 121.837 102.923 122.068C102.584 122.299 102.35 122.654 102.272 123.057C102.194 123.459 102.278 123.876 102.505 124.217C102.733 124.558 103.086 124.795 103.488 124.877C104.081 124.996 104.684 125.058 105.289 125.062C106.444 125.095 107.582 124.772 108.547 124.136C109.472 123.503 109.924 122.729 110.287 122.108C110.569 121.627 110.791 121.247 111.222 120.917C111.808 120.469 112.609 120.241 113.604 120.241H113.648C114.06 120.242 114.456 120.08 114.749 119.789C115.041 119.498 115.206 119.103 115.207 118.69C115.208 118.278 115.045 117.882 114.754 117.59C114.464 117.297 114.069 117.133 113.656 117.132L113.656 117.132Z" fill="#E1E1E6" stroke="#E1E1E6" stroke-width="2" mask="url(#path-2-inside-1_4254_1234)"/>
</g>
<defs>
<clipPath id="clip0_4254_1234">
<rect width="186" height="186" fill="white"/>
</clipPath>
</defs>
</svg>
