<svg width="180" height="187" viewBox="0 0 180 187" fill="none" xmlns="http://www.w3.org/2000/svg">
<path fill-rule="evenodd" clip-rule="evenodd" d="M89.9993 187C40.3743 187 0 145.055 0 93.5C0 41.9447 40.3743 0 89.9993 0C139.626 0 180 41.9447 180 93.5C180 145.055 139.627 187 89.9993 187ZM89.9993 7.02382C44.1017 7.02382 6.76247 45.8167 6.76247 93.4983C6.76247 141.18 44.1017 179.973 89.9993 179.973C135.897 179.973 173.238 141.18 173.238 93.4983C173.238 45.8167 135.897 7.02382 89.9993 7.02382ZM89.9993 161.564C53.8733 161.564 24.4839 131.03 24.4839 93.5C24.4839 55.9701 53.8733 25.4362 89.9993 25.4362C126.125 25.4362 155.515 55.9701 155.515 93.5C155.515 131.03 126.125 161.564 89.9993 161.564ZM89.9993 32.4604C57.602 32.4604 31.2463 59.8425 31.2463 93.4986C31.2463 127.155 57.602 154.537 89.9993 154.537C122.397 154.537 148.752 127.155 148.752 93.4986C148.752 59.8425 122.397 32.4604 89.9993 32.4604Z" fill="#E1E1E6"/>
<path fill-rule="evenodd" clip-rule="evenodd" d="M67.5144 58.7719C69.474 58.7719 71.0626 60.1366 71.0626 61.82V77.0608C71.0626 78.7442 69.474 80.109 67.5144 80.109C65.5549 80.109 63.9663 78.7442 63.9663 77.0608V61.82C63.9663 60.1366 65.5549 58.7719 67.5144 58.7719Z" fill="#E1E1E6"/>
<path fill-rule="evenodd" clip-rule="evenodd" d="M67.5144 90.7775C69.474 90.7775 71.0626 92.1422 71.0626 93.8256V134.976C71.0626 136.659 69.474 138.024 67.5144 138.024C65.5549 138.024 63.9663 136.659 63.9663 134.976V93.8256C63.9663 92.1422 65.5549 90.7775 67.5144 90.7775Z" fill="#E1E1E6"/>
<path fill-rule="evenodd" clip-rule="evenodd" d="M55.6792 58.8134C57.6122 59.0901 58.918 60.6606 58.5958 62.3212L55.099 80.3455C55.1697 83.0893 56.4693 85.7078 58.7332 87.6527C61.0622 89.6535 64.2208 90.7775 67.5144 90.7775C70.808 90.7775 73.9667 89.6535 76.2957 87.6527C78.5596 85.7078 79.8592 83.0893 79.9299 80.3455L76.4331 62.3212C76.1109 60.6606 77.4167 59.0901 79.3496 58.8134C81.2826 58.5366 83.1107 59.6584 83.4328 61.3189L86.981 79.6078C87.0131 79.7734 87.0293 79.9411 87.0293 80.109C87.0293 84.5553 84.9732 88.8195 81.3135 91.9635C77.6538 95.1075 72.6901 96.8738 67.5144 96.8738C62.3388 96.8738 57.3751 95.1075 53.7154 91.9635C50.0557 88.8195 47.9996 84.5553 47.9996 80.109C47.9996 79.9411 48.0158 79.7734 48.0479 79.6078L51.5961 61.3189C51.9182 59.6584 53.7463 58.5366 55.6792 58.8134Z" fill="#E1E1E6"/>
<path fill-rule="evenodd" clip-rule="evenodd" d="M122.772 59.3234C123.72 59.8939 124.285 60.8257 124.285 61.82V134.976C124.285 136.659 122.696 138.024 120.737 138.024C118.777 138.024 117.189 136.659 117.189 134.976V113.639H95.8996C94.8928 113.639 93.9334 113.271 93.2604 112.628C92.5875 111.984 92.2644 111.126 92.3717 110.266L95.8996 110.59C92.3717 110.266 92.3717 110.266 92.3717 110.266L92.3732 110.254L92.3767 110.226L92.3899 110.125C92.4014 110.038 92.4184 109.911 92.4412 109.748C92.4867 109.42 92.5555 108.945 92.6496 108.341C92.8379 107.132 93.1279 105.407 93.5374 103.321C94.355 99.1548 95.6555 93.5149 97.5863 87.6604C99.5097 81.8287 102.099 75.6579 105.545 70.4958C108.946 65.4014 113.478 60.8443 119.524 58.9554C120.612 58.6156 121.824 58.753 122.772 59.3234ZM99.9458 107.542H117.189V67.3088C115.258 68.8571 113.422 70.9504 111.701 73.5288C108.661 78.0827 106.26 83.7234 104.414 89.3223C102.575 94.8984 101.325 100.308 100.535 104.334C100.298 105.542 100.103 106.623 99.9458 107.542Z" fill="#E1E1E6"/>
</svg>
