<svg width="26" height="24" viewBox="0 0 26 24" fill="none" xmlns="http://www.w3.org/2000/svg">
<path fill-rule="evenodd" clip-rule="evenodd" d="M16.431 0.54756C17.3245 0.15989 18.2845 -0.0263356 19.2515 0.00299834C20.2184 0.0323312 21.1665 0.276423 22.0374 0.716901C22.9076 1.15703 23.68 1.78273 24.3106 2.55087C26.8405 5.61947 26.4109 10.3054 23.8142 13.1519L23.8125 13.1538L14.4368 23.3797L13.6996 22.7039L14.4335 23.3833C14.0785 23.7668 13.5797 24 13.0399 24C12.5001 24 12.0013 23.7668 11.6463 23.3833L11.6431 23.3797L2.02427 12.8887L2.02403 12.8884C1.35437 12.1575 0.832743 11.2902 0.48681 10.3417C0.140901 9.39333 -0.0232599 8.38057 0.00265199 7.3645C0.0285639 6.34841 0.244109 5.34649 0.638319 4.41934C1.03241 3.49249 1.59804 2.65701 2.30497 1.96656C5.18795 -0.860961 9.62203 -0.353146 12.259 2.50858L12.2632 2.5132L12.2632 2.51321L13.0403 3.36722L14.06 2.24771L14.0625 2.24503C14.7328 1.51442 15.5378 0.935087 16.431 0.54756ZM13.0399 21.9438L22.3366 11.804C22.3369 11.8037 22.3373 11.8033 22.3376 11.803C24.3465 9.59981 24.588 6.03064 22.7669 3.82247L22.7654 3.82064C22.3047 3.25934 21.7488 2.81219 21.1347 2.50159C20.5209 2.19116 19.8597 2.02237 19.1908 2.00208C18.5219 1.98179 17.8541 2.11023 17.227 2.3823C16.6001 2.6543 16.0243 3.0655 15.5373 3.59591C15.5369 3.59633 15.5365 3.59674 15.5361 3.59716L13.7792 5.52606C13.5896 5.73417 13.3211 5.85274 13.0396 5.85267C12.7582 5.8526 12.4897 5.73388 12.3003 5.52567L10.7861 3.86162C8.79329 1.70109 5.65945 1.4773 3.70476 3.39505L3.70304 3.39674L3.70304 3.39674C3.19108 3.89659 2.77308 4.50993 2.47886 5.20192C2.1846 5.89399 2.02159 6.64739 2.002 7.41548C1.98241 8.18358 2.10676 8.94638 2.36574 9.65644C2.62465 10.3663 3.0115 11.0055 3.49845 11.5371C3.49853 11.5371 3.49861 11.5372 3.49869 11.5373L13.0399 21.9438Z" fill="white"/>
</svg>
