<svg width="34" height="34" viewBox="0 0 34 34" fill="none" xmlns="http://www.w3.org/2000/svg">
<path d="M17.4756 33.9999H17.3053C14.9693 33.9821 12.6604 33.4982 10.5137 32.5767C8.36704 31.6552 6.42575 30.3146 4.80352 28.6333C1.79533 25.4155 0.0853427 21.1972 0.00356273 16.7926C-0.0782172 12.3879 1.47401 8.10901 4.36067 4.78174C6.22041 2.69702 8.55835 1.09511 11.1736 0.113656C11.4788 -0.00379811 11.8113 -0.0309129 12.1314 0.0355498C12.4516 0.102013 12.7458 0.259243 12.9791 0.488466C13.1951 0.708789 13.3472 0.983657 13.4192 1.28372C13.4912 1.58378 13.4803 1.89776 13.3878 2.19215C12.4544 4.74926 12.2694 7.51963 12.8547 10.1782C13.44 12.8367 14.7712 15.2732 16.6921 17.2016C18.631 19.1171 21.0725 20.4441 23.7342 21.0291C26.3958 21.614 29.1687 21.4329 31.7317 20.5067C32.0368 20.3993 32.3661 20.381 32.6812 20.4539C32.9963 20.5268 33.2841 20.688 33.511 20.9185C33.7379 21.149 33.8945 21.4394 33.9624 21.7557C34.0304 22.0719 34.007 22.401 33.8948 22.7045C33.0247 25.0278 31.6655 27.1369 29.9092 28.8888C28.2756 30.518 26.3361 31.8083 24.2023 32.6854C22.0686 33.5625 19.7825 34.0092 17.4756 33.9999Z" fill="#E1E1E6"/>
</svg>
