<svg width="31" height="37" viewBox="0 0 31 37" fill="none" xmlns="http://www.w3.org/2000/svg">
<g clip-path="url(#clip0_4956_836)">
<path fill-rule="evenodd" clip-rule="evenodd" d="M7.864 35.5706C7.9396 35.6203 7.88702 35.5719 7.9444 35.6331C7.95738 35.647 7.98052 35.6857 7.99305 35.7044C8.03262 35.7633 8.04266 35.7844 8.08598 35.8376C8.22251 36.0052 8.36713 36.0987 8.54685 36.2429L8.8032 36.4337C8.99752 36.6768 9.9257 36.9415 10.3048 36.9906C10.3322 36.9942 10.4165 36.9973 10.5505 37H27.0652C27.0721 37 27.0806 37 27.0871 37C28.5243 37 29.1532 36.7301 30.0791 35.8205C30.4056 35.4998 30.7004 34.9675 30.8531 34.4754C30.937 34.2051 30.9797 33.7414 31.0001 33.2129V9.58973C31.0002 8.36674 30.6203 7.43808 29.7353 6.69373C28.6618 5.7907 27.7066 5.85214 26.3652 5.85214C23.554 5.85214 20.7427 5.85214 17.9314 5.85214C18.0345 6.06567 18.1887 6.8196 18.2295 7.10394C18.2925 7.54341 18.3494 8.04792 18.3494 8.53278C21.2865 8.53278 24.2274 8.54745 27.164 8.53189C27.6936 8.5291 28.0174 8.70213 28.1909 9.13486C28.2787 9.35392 28.2268 15.8097 28.2268 16.2726C28.2268 21.9132 28.1909 27.6625 28.2271 33.3004C28.234 34.361 27.556 34.3195 26.4793 34.3195C21.3361 34.3195 16.1492 34.2922 11.017 34.3197C10.2845 34.3237 9.87633 34.0201 9.87628 33.2636L9.87759 17.8582C8.88511 18.088 7.72588 17.8205 7.1423 17.8205V31.6766C7.1423 32.8764 6.9782 33.8079 7.42395 34.8701C7.50102 35.0538 7.73341 35.4847 7.86408 35.5707L7.864 35.5706Z" fill="#E1E1E6"/>
<path fill-rule="evenodd" clip-rule="evenodd" d="M13.863 12.4969C13.787 12.6556 13.8169 12.5314 13.6284 12.7873C13.4873 12.9788 12.9835 13.4448 12.8407 13.5136C12.53 13.6068 11.1422 15.1636 7.9386 14.9523C7.00424 14.8907 6.13849 14.5633 5.47032 14.2339C3.70726 13.3648 2.42017 11.6425 1.99134 9.72508C1.74 8.60128 1.84899 7.28852 2.22645 6.21468C2.34769 5.86971 2.56154 5.44172 2.73719 5.13656C2.83224 4.97136 2.93493 4.81422 3.04633 4.65093C3.1513 4.49705 3.26989 4.3452 3.39247 4.20204C4.04002 3.44564 4.75643 2.89547 5.65996 2.45349C7.6598 1.47524 10.1696 1.6207 12.074 2.76293C12.6943 3.13499 13.3715 3.69256 13.807 4.24977C14.5378 5.1849 15.1359 6.30231 15.2661 7.59461C15.3702 8.62876 15.261 9.6077 14.9927 10.4071C14.5507 11.7239 13.9096 12.3479 13.8629 12.4969L13.863 12.4969ZM0 8.1553V8.15493C0 7.28121 0.202904 6.34289 0.488125 5.58205C1.09615 3.95997 2.15894 2.52168 3.60152 1.54043C3.66712 1.49581 3.69848 1.46849 3.75537 1.42908L4.22861 1.14429C5.30747 0.546378 6.71804 0 8.1679 0H9.00367C10.1445 0 11.5482 0.430256 12.3218 0.817749C13.3881 1.35196 13.3966 1.41736 14.2084 2.03871C14.5011 2.26271 15.0251 2.81123 15.246 3.08402C16.0679 4.09889 16.644 5.18857 16.9516 6.48593C17.3669 8.23706 17.1783 10.3442 16.3992 11.8804C16.1496 12.3723 15.9498 12.7674 15.636 13.1984C14.6495 14.5535 13.6847 15.281 12.2078 16.021C11.4116 16.42 9.99607 16.801 8.81374 16.801C7.25371 16.801 6.32732 16.6082 4.98764 16.0351C3.48121 15.3906 1.93233 14.021 1.12799 12.5842C0.299659 11.1046 4.06703e-05 9.90429 4.06703e-05 8.15534L0 8.1553Z" fill="#E1E1E6"/>
<path fill-rule="evenodd" clip-rule="evenodd" d="M13.4485 22.7663C13.4485 23.4416 13.9586 23.7102 14.5883 23.7102H24.0098C24.3644 23.7102 24.6108 23.6515 24.8145 23.4905C25.3612 23.058 25.3349 21.8602 24.0098 21.8602H14.5883C13.9582 21.8602 13.4485 22.1513 13.4485 22.7663Z" fill="#E1E1E6"/>
<path fill-rule="evenodd" clip-rule="evenodd" d="M14.0592 16.5367C13.9508 16.6184 13.8008 16.6857 13.719 16.7678C13.6365 16.8505 13.5677 17.0057 13.4865 17.1132C13.3888 17.2843 13.4592 17.6507 13.5228 17.7843C13.5991 17.9445 13.7536 18.0996 13.915 18.1874C14.2639 18.377 14.9086 18.3112 15.424 18.3112H23.4779C24.1031 18.3112 24.5064 18.359 24.8521 18.0535C24.9603 17.9578 25.1032 17.7121 25.1134 17.52C25.1311 17.1852 25.1049 17.0644 24.9666 16.8695C24.6725 16.4549 24.3782 16.499 23.7059 16.499C22.3221 16.499 14.2632 16.4351 14.0592 16.5367Z" fill="#E1E1E6"/>
<path fill-rule="evenodd" clip-rule="evenodd" d="M13.4485 28.3918C13.4485 28.8998 13.87 29.298 14.2083 29.298H24.3897C24.565 29.298 24.8209 29.1301 24.9118 29.024C25.4414 28.4055 25.043 27.4857 24.1617 27.4857H14.4362C13.8942 27.4857 13.4485 27.8626 13.4485 28.3918L13.4485 28.3918Z" fill="#E1E1E6"/>
<path fill-rule="evenodd" clip-rule="evenodd" d="M7.67399 3.88881V8.57045C7.67399 8.85985 8.07236 9.2878 8.47178 9.2878H13.8284C14.2913 9.2878 14.7038 8.80306 14.6502 8.32062C14.5942 7.81608 14.2186 7.47555 13.6764 7.47555H9.49748V3.92656C9.49748 2.83287 7.67395 2.85967 7.67395 3.88881H7.67399Z" fill="#E1E1E6"/>
<path fill-rule="evenodd" clip-rule="evenodd" d="M12.8407 13.5136C12.9835 13.4448 13.4874 12.9788 13.6284 12.7873C13.8169 12.5314 13.7871 12.6556 13.863 12.4969C13.8283 12.5246 13.8516 12.504 13.8042 12.5464L13.3714 13.0242C13.2059 13.1902 12.9432 13.3825 12.8407 13.5136Z" fill="#C5C5C5"/>
<path fill-rule="evenodd" clip-rule="evenodd" d="M8.80315 36.4336L8.54681 36.2429C8.36708 36.0987 8.22246 36.0052 8.08593 35.8375C8.04262 35.7843 8.03253 35.7633 7.993 35.7043C7.98047 35.6857 7.95733 35.6469 7.94436 35.6331C7.88701 35.5719 7.9396 35.6203 7.86395 35.5706C7.87038 35.5812 7.87929 35.5847 7.88295 35.6026L7.95465 35.7068C8.16524 35.9812 8.24934 36.0396 8.50744 36.2438L8.80315 36.4336V36.4336Z" fill="#C5C5C5"/>
<path fill-rule="evenodd" clip-rule="evenodd" d="M13.4865 17.1132C13.5677 17.0057 13.6366 16.8505 13.719 16.7678C13.8008 16.6857 13.9508 16.6184 14.0593 16.5367C13.9611 16.5613 13.9347 16.5726 13.8664 16.6171L13.5833 16.8931C13.5261 16.9736 13.5139 17.002 13.4865 17.1132Z" fill="#C5C5C5"/>
</g>
<defs>
<clipPath id="clip0_4956_836">
<rect width="31" height="37" fill="white"/>
</clipPath>
</defs>
</svg>
