<svg width="26" height="26" viewBox="0 0 26 26" fill="none" xmlns="http://www.w3.org/2000/svg">
<path d="M13.7518 4.81033L21.1901 12.2486M8.00046 25H2.06311C1.78129 25 1.51101 24.888 1.31173 24.6888C1.11245 24.4895 1.00049 24.2192 1.00049 23.9374V18C1.00001 17.8621 1.02675 17.7253 1.07917 17.5977C1.13159 17.4701 1.20867 17.354 1.306 17.2562L17.2452 1.31701C17.3441 1.21661 17.4619 1.13687 17.5919 1.08245C17.7219 1.02803 17.8614 1 18.0023 1C18.1432 1 18.2827 1.02803 18.4127 1.08245C18.5427 1.13687 18.6605 1.21661 18.7594 1.31701L24.6835 7.24107C24.7839 7.33995 24.8636 7.45781 24.918 7.58779C24.9725 7.71777 25.0005 7.85727 25.0005 7.99819C25.0005 8.1391 24.9725 8.27861 24.918 8.40859C24.8636 8.53857 24.7839 8.65642 24.6835 8.7553L8.74429 24.6945C8.64648 24.7918 8.53043 24.8689 8.4028 24.9213C8.27516 24.9737 8.13844 25.0005 8.00046 25Z" stroke="#E1E1E6" stroke-width="2" stroke-linecap="round" stroke-linejoin="round"/>
</svg>
