<?xml version="1.0" encoding="UTF-8"?>
<!DOCTYPE svg PUBLIC "-//W3C//DTD SVG 1.1//EN" "http://www.w3.org/Graphics/SVG/1.1/DTD/svg11.dtd">
<!-- Creator: CorelDRAW 2019 (64-Bit) -->
<svg xmlns="http://www.w3.org/2000/svg" xml:space="preserve" width="5.5in" height="5.3in" version="1.1" style="shape-rendering:geometricPrecision; text-rendering:geometricPrecision; image-rendering:optimizeQuality; fill-rule:evenodd; clip-rule:evenodd"
viewBox="0 0 5500 5300"
 xmlns:xlink="http://www.w3.org/1999/xlink">
 <defs>
  <style type="text/css">
   <![CDATA[
    .fil0 {fill:black}
   ]]>
  </style>
 </defs>
 <g id="Layer_x0020_1">
  <metadata id="CorelCorpID_0Corel-Layer"/>
  <g id="_2693650065696">
   <path class="fil0" d="M1154.56 1384.76l3734.7 0 -249.79 1234.39c-16.87,84.39 -80.03,351.93 -80.03,414.7l-3065.37 0 -170.58 -818.87c-28.8,-145.5 -153.42,-709.22 -168.93,-830.22zm-979.76 -931.25c0,111.1 46.3,121.43 160.74,169.07l420.37 181.07c43.28,22.87 53.35,149.28 69.63,231.08l310.42 1503.58c16.63,83.37 34.62,162.26 51.77,248.95l155.17 756.67c26.59,132.97 50.29,333.86 277.28,333.86l2900.45 0c192.76,0 163.13,-252.21 19.4,-252.21l-2929.56 0c0,-33.02 -58.52,-319.96 -67.9,-339.52 915.08,0 1830.17,0 2745.25,0 192.35,0 432.81,46.94 505.9,-182.83 27.41,-86.16 198.58,-976.46 235.43,-1142.04 29.46,-132.33 112.31,-489.47 112.31,-605.53 0,-36.03 -11.16,-65.24 -25.65,-90.76 -44.63,-78.61 -124.84,-132.36 -226.56,-132.36l-3792.91 0c0,-57.7 -19.45,-111.68 -30.01,-164 -83.86,-415.33 -58.04,-310.89 -480.86,-508.59 -45.24,-21.15 -243.69,-113.15 -284.57,-113.15 -64.3,0 -126.11,45.2 -126.11,106.7z"/>
   <path class="fil0" d="M3599.09 4518.03c0,-175.73 187.39,-264.14 317.73,-152.83 96.66,82.54 98.55,327.44 -143.12,327.44 -90.34,0 -174.61,-87.06 -174.61,-174.61zm-252.21 -9.7c0,55.8 22.84,131.62 39.89,173.52 10.21,25.1 22.51,47.89 37.61,69.1 53.1,74.61 88.28,107.14 171.32,148.8 434.97,218.22 847.92,-354.62 515.3,-689.91 -130.27,-131.31 -197.23,-138.03 -366.4,-138.03 -151.9,0 -298.07,125.89 -359,261.83 -15.28,34.09 -38.72,126.34 -38.72,174.69z"/>
   <path class="fil0" d="M2066.41 4508.32c0,-51.28 28.07,-111.55 55.55,-138.45 102.95,-100.78 322.76,-62.28 322.76,148.16 0,48.17 -23.03,91.78 -46.78,118.12 -101,112.04 -331.53,56.24 -331.53,-127.83zm164.91 436.53c457.12,0 587.47,-492.62 347,-735.02 -130.27,-131.31 -197.23,-138.03 -366.4,-138.03 -109.84,0 -223.97,78.65 -279.07,138.04 -200.25,215.83 -129.18,563.1 130.02,690.05 41.27,20.21 111.99,44.95 168.46,44.95z"/>
   <path class="fil0" d="M2027.61 1879.48c0,77 34.07,135.81 126.1,135.81l1755.8 0c121.45,0 201.28,-252.22 -67.91,-252.22l-1649.09 0c-83.8,0 -164.91,34.72 -164.91,116.41z"/>
   <path class="fil0" d="M2124.61 2510.02c0,104.27 46.13,145.51 184.31,145.51l1435.68 0c266.61,0 200.02,-252.21 67.91,-252.21l-1581.19 0c-53.06,0 -106.7,51.49 -106.7,106.7z"/>
  </g>
 </g>
</svg>
