<svg width="138" height="140" viewBox="0 0 138 140" fill="none" xmlns="http://www.w3.org/2000/svg">
<path d="M68 0L128.622 35V105L68 140L7.37822 105V35L68 0Z" fill="#065E7C"/>
<path fill-rule="evenodd" clip-rule="evenodd" d="M53.3488 41.0004C54.8901 41.0004 56.1395 42.0335 56.1395 43.308V54.8464C56.1395 56.1209 54.8901 57.1541 53.3488 57.1541C51.8076 57.1541 50.5581 56.1209 50.5581 54.8464V43.308C50.5581 42.0335 51.8076 41.0004 53.3488 41.0004Z" fill="white"/>
<path fill-rule="evenodd" clip-rule="evenodd" d="M53.3488 65.231C54.8901 65.231 56.1395 66.2642 56.1395 67.5387V98.6923C56.1395 99.9668 54.8901 101 53.3488 101C51.8076 101 50.5581 99.9668 50.5581 98.6923V67.5387C50.5581 66.2642 51.8076 65.231 53.3488 65.231Z" fill="white"/>
<path fill-rule="evenodd" clip-rule="evenodd" d="M44.0402 41.0318C45.5605 41.2413 46.5875 42.4303 46.3341 43.6874L43.5838 57.3332C43.6394 59.4104 44.6616 61.3929 46.4422 62.8653C48.274 64.38 50.7584 65.231 53.3488 65.231C55.9393 65.231 58.4237 64.38 60.2555 62.8653C62.0361 61.3929 63.0582 59.4104 63.1139 57.3332L60.3636 43.6874C60.1102 42.4303 61.1372 41.2413 62.6575 41.0318C64.1778 40.8222 65.6156 41.6715 65.869 42.9287L68.6597 56.7747C68.685 56.9001 68.6977 57.027 68.6977 57.1541C68.6977 60.5203 67.0806 63.7486 64.2021 66.1289C61.3236 68.5091 57.4196 69.8463 53.3488 69.8463C49.2781 69.8463 45.374 68.5091 42.4956 66.1289C39.6171 63.7486 38 60.5203 38 57.1541C38 57.027 38.0127 56.9001 38.038 56.7747L40.8287 42.9287C41.0821 41.6715 42.5199 40.8222 44.0402 41.0318Z" fill="white"/>
<path fill-rule="evenodd" clip-rule="evenodd" d="M96.8103 41.4179C97.556 41.8498 98 42.5552 98 43.308V98.6923C98 99.9668 96.7506 101 95.2093 101C93.668 101 92.4186 99.9668 92.4186 98.6923V82.5386H75.6744C74.8825 82.5386 74.1279 82.2604 73.5986 81.7733C73.0694 81.2862 72.8152 80.6362 72.8996 79.9851L75.6744 80.2309C72.8996 79.9851 72.8996 79.9851 72.8996 79.9851L72.9008 79.9758L72.9036 79.9548L72.9139 79.8785C72.923 79.8125 72.9363 79.7166 72.9543 79.5927C72.9901 79.345 73.0442 78.985 73.1182 78.5275C73.2663 77.6128 73.4944 76.3067 73.8165 74.7271C74.4595 71.5732 75.4824 67.3034 77.001 62.8711C78.5138 58.4561 80.5503 53.7843 83.2609 49.8762C85.9359 46.0194 89.5 42.5693 94.2556 41.1393C95.1112 40.882 96.0647 40.986 96.8103 41.4179ZM78.8568 77.9232H92.4186V47.4634C90.9 48.6356 89.4564 50.2204 88.1025 52.1724C85.7113 55.6201 83.8234 59.8905 82.3711 64.1293C80.9246 68.3508 79.9417 72.4464 79.3202 75.4944C79.1337 76.4091 78.9802 77.2271 78.8568 77.9232Z" fill="white"/>
</svg>
