<svg width="44" height="44" viewBox="0 0 44 44" fill="none" xmlns="http://www.w3.org/2000/svg">
<g clip-path="url(#clip0_4289_1236)">
<path d="M22.0005 9.06641C14.7903 9.06641 8.92078 14.9359 8.92078 22.1461C8.92078 29.3563 14.7903 35.2258 22.0005 35.2258C29.2106 35.2258 35.0802 29.3563 35.0802 22.1461C35.0802 14.9273 29.2106 9.06641 22.0005 9.06641ZM22.0005 31.7109C16.7239 31.7109 12.427 27.4141 12.427 22.1375C12.427 16.8609 16.7239 12.5641 22.0005 12.5641C27.277 12.5641 31.5739 16.8609 31.5739 22.1375C31.5739 27.4141 27.277 31.7109 22.0005 31.7109Z" fill="#E1E1E6"/>
<path d="M22.0005 6.42813C22.9716 6.42813 23.7536 5.64609 23.7536 4.675V2.69844C23.7536 1.72734 22.9716 0.945312 22.0005 0.945312C21.0294 0.945312 20.2474 1.72734 20.2474 2.69844V4.675C20.2474 5.64609 21.0294 6.42813 22.0005 6.42813Z" fill="#E1E1E6"/>
<path d="M22.0005 37.5719C21.0294 37.5719 20.2474 38.3539 20.2474 39.325V41.293C20.2474 42.2641 21.0294 43.0461 22.0005 43.0461C22.9716 43.0461 23.7536 42.2641 23.7536 41.293V39.325C23.7536 38.3625 22.9716 37.5719 22.0005 37.5719Z" fill="#E1E1E6"/>
<path d="M41.3021 20.2469H39.3255C38.3544 20.2469 37.5724 21.0289 37.5724 22C37.5724 22.9711 38.3544 23.7531 39.3255 23.7531H41.3021C42.2732 23.7531 43.0552 22.9711 43.0552 22C43.0552 21.0289 42.2732 20.2469 41.3021 20.2469Z" fill="#E1E1E6"/>
<path d="M4.67549 20.2469H2.69893C1.72783 20.2469 0.945801 21.0289 0.945801 22C0.945801 22.9711 1.72783 23.7531 2.69893 23.7531H4.66689C5.63799 23.7531 6.42002 22.9711 6.42002 22C6.42861 21.0289 5.63799 20.2469 4.67549 20.2469Z" fill="#E1E1E6"/>
<path d="M34.4099 7.11563L33.0091 8.50782C32.3216 9.19532 32.3216 10.3039 33.0091 10.9914C33.6966 11.6789 34.8052 11.6789 35.4927 10.9914L36.8849 9.59922C37.5724 8.91172 37.5724 7.80313 36.8849 7.11563C36.1974 6.42813 35.0888 6.42813 34.4099 7.11563Z" fill="#E1E1E6"/>
<path d="M8.50828 33.0086L7.11609 34.4008C6.42859 35.0883 6.42859 36.1969 7.11609 36.8844C7.80359 37.5719 8.91218 37.5719 9.59968 36.8844L10.9919 35.4922C11.6794 34.8047 11.6794 33.6961 10.9919 33.0086C10.3044 32.3211 9.19578 32.3297 8.50828 33.0086Z" fill="#E1E1E6"/>
<path d="M35.4927 33.0086C34.8052 32.3211 33.6966 32.3211 33.0091 33.0086C32.3216 33.6961 32.3216 34.8047 33.0091 35.4922L34.4013 36.8844C35.0888 37.5719 36.1974 37.5719 36.8849 36.8844C37.5724 36.1969 37.5724 35.0883 36.8849 34.4008L35.4927 33.0086Z" fill="#E1E1E6"/>
<path d="M8.50828 10.9914C9.19578 11.6789 10.3044 11.6789 10.9919 10.9914C11.6794 10.3039 11.6794 9.19532 10.9919 8.50782L9.59968 7.11563C8.91218 6.42813 7.80359 6.42813 7.11609 7.11563C6.42859 7.80313 6.42859 8.91172 7.11609 9.59922L8.50828 10.9914Z" fill="#E1E1E6"/>
</g>
<defs>
<clipPath id="clip0_4289_1236">
<rect width="44" height="44" fill="white" transform="translate(0.000488281)"/>
</clipPath>
</defs>
</svg>
