<svg width="36" height="36" viewBox="0 0 36 36" fill="none" xmlns="http://www.w3.org/2000/svg">
<path d="M10.6317 21.1581C13.2984 20.5265 15.7545 20.2107 18.0001 20.2107C20.2458 20.2107 22.7019 20.5265 25.3686 21.1581C28.0353 21.7896 30.4567 22.8423 32.6316 24.316C34.8772 25.7897 36 27.4385 36 29.2631V36H0V29.2631C0 27.4385 1.08773 25.7897 3.26318 24.316C5.50882 22.8423 7.96498 21.7896 10.6317 21.1581ZM11.6843 2.73686C13.4387 0.912288 15.544 0 18.0001 0C20.4563 0 22.5616 0.912288 24.316 2.73686C26.0704 4.49126 26.9479 6.59654 26.9479 9.0527C26.9479 11.5089 26.0704 13.6141 24.316 15.3685C22.5616 17.1229 20.4563 18.0001 18.0001 18.0001C15.544 18.0001 13.4387 17.1229 11.6843 15.3685C9.9299 13.6141 9.0527 11.5089 9.0527 9.0527C9.0527 6.59654 9.9299 4.49126 11.6843 2.73686ZM27.1578 26.3157C24.1408 25.1233 21.0879 24.5265 18.0001 24.5265C14.9124 24.5265 11.8597 25.1233 8.84217 26.3157C5.82461 27.4385 4.31582 28.421 4.31582 29.2631V31.6845H31.6845V29.2631C31.6845 28.421 30.176 27.4385 27.1578 26.3157ZM21.3686 5.68426C20.4563 4.77197 19.3335 4.31582 18.0001 4.31582C16.6668 4.31582 15.544 4.77197 14.6317 5.68426C13.7194 6.59654 13.2633 7.71936 13.2633 9.0527C13.2633 10.386 13.7194 11.5089 14.6317 12.4212C15.544 13.2633 16.6668 13.6843 18.0001 13.6843C19.3335 13.6843 20.4563 13.2633 21.3686 12.4212C22.2809 11.5089 22.7373 10.386 22.7373 9.0527C22.7373 7.71936 22.2809 6.59654 21.3686 5.68426Z" fill="#E1E1E6"/>
</svg>
